<?xml version="1.0" encoding="UTF-8"?>
<svg id="Layer_1" data-name="Layer 1" xmlns="http://www.w3.org/2000/svg" viewBox="0 0 283.46 283.46">
  <defs>
    <style>
      .cls-1 {
        fill: none;
      }

      .cls-2 {
        fill: #fff;
      }
    </style>
  </defs>
  <g>
    <path class="cls-2" d="M142.81,139.29l.55-99.73s2.42,2.42,2.42,2.42c0,0-33.85-.19-33.85-.19,0,0,2.23-2.26,2.22-2.26-.03,18.33,0,43.89-.15,61.94-.09,10.32-.2,20.65-.53,30.99-.37,10.29-.03,22.23-12.25,25.3-.7.25-1.39.64-2.21,1.53,0,0,.25-5.92.25-5.92,2.35,3.73,7.15-.06,8.67-2.71,3.14-5.49,2.67-12.11,2.88-18.27.35-29.78-.36-62.85-1.11-92.79,0,0-.05-2.24-.05-2.24,0,0,2.27-.01,2.27-.01,0,0,33.85-.19,33.85-.19,0,0,2.4,0,2.4,0,0,0,.01,2.42.01,2.42l.55,99.73h-5.93Z"/>
    <path class="cls-2" d="M86.98,165.57c-20.07.96-33.22-12.4-34.09-32.15-.08-5.39-.15-12.72-.22-18.13,1.44-.02,18.09-.09,20.03-.12,0,0,8.51-.05,8.51-.05h.53c3.68-.06,7.32,1.79,9.42,4.83,1.63,2.16,2.21,5.34,2.06,7.9,0,0,.01,2.13.01,2.13,0,1.43.03,5.01.04,6.38-.55,13.88,11.21,25.22,24.98,24.8,13.18-.07,24.72-9.31,24.55-23.06,0,0,5.93-.11,5.93-.11.17,6.32-1.65,12.81-5.58,17.87-11.87,15.59-37.72,15.84-49.8.36-4.56-5.5-6.85-12.74-6.6-19.86,0-1.37.03-4.98.04-6.38,0-.94.04-3.22,0-3.99-.17-2.82-2.82-4.87-5.58-4.62-5.45-.04-19.92-.12-25.54-.15,0,0,2.97-2.97,2.97-2.97,0,0-.18,16.04-.18,16.04.48,15.12,9.32,26.47,24.65,28.58,1.28.27,2.6.33,3.91.49l-.04,2.21h0Z"/>
  </g>
  <polygon class="cls-2" points="116.21 54.57 141.91 54.03 141.91 55.41 116.21 54.87 116.21 54.57 116.21 54.57"/>
  <g>
    <path class="cls-1" d="M218.74,72.75c-4.38,0-8.96,1.54-13.75,4.61-4.79,3.08-9.67,7.21-14.63,12.42-4.97,5.21-9.79,10.94-14.46,17.2-4.67,6.27-9.05,12.62-13.13,19.07-4.08,6.45-7.72,12.53-10.91,18.27-1.72,3.09-3.22,5.9-4.53,8.45,3.1-1.89,7.16-4.83,11.02-8.3,5.5-4.94,10.46-8.78,15.74-15.15,1.23-1.48,4.6-4.8,7.61-9.06,3.01-4.26,3.86-6.17,4.46-6.93.42-.53-.9,2.96-4.3,7.6-3.39,4.64-5.85,7.91-7.38,9.8-6.35,7.84-13.07,14.7-20.16,20.6-4.06,3.38-7.27,5.7-9.74,7.09-.06.12-.12.25-.17.37.59.36,1.48.59,2.66.71,1.18.12,2.06.18,2.66.18,6.26,0,12.5-1.39,18.71-4.17,6.21-2.78,12.18-6.5,17.92-11.18,5.73-4.67,11.02-9.84,15.87-15.52,4.85-5.68,9.07-11.44,12.68-17.29,3.61-5.85,6.41-11.41,8.43-16.67,2.01-5.26,3.01-9.73,3.01-13.39,0-2.72-.62-4.85-1.86-6.39-1.24-1.54-3.16-2.31-5.76-2.31Z"/>
    <path class="cls-2" d="M227.96,71.77c-2.13-2.42-5.56-3.64-10.29-3.64-5.8,0-11.47,1.54-17.03,4.61-5.56,3.08-10.91,7.21-16.05,12.42-5.14,5.21-10.02,11-14.63,17.38-4.61,6.39-8.87,12.92-12.77,19.6-3.9,6.68-7.39,13.01-10.47,18.98-3.07,5.97-5.62,11.15-7.63,15.52-.02,0-.03-.02-.05-.03-.42,1.46-1.12,3.54-1.88,4.63-1.9,4.28-3.8,8.78-5.7,13.58-2.13,5.38-3.42,11.16-4.44,15.87-.33,1.52-.5,2.96-.8,4.26-.3,1.3-.74,2.72-1.33,4.26-3.67,2.72-6.3,5.2-7.9,7.45-1.59,2.24-2.39,4.2-2.39,5.85,0,1.3.44,2.33,1.33,3.11.89.77,2.72,1.44,4.02,1.44,2.13,0,4.51-.32,6.69-3.17s2.78-6.75,3.73-12.18c5.1-3.84,10.92-6.89,15.54-8.78,4.61-1.89,12.36-5.2,16.68-6.51,4.32-1.3,8.03-2.34,13.18-2.99,5.15-.65,10.33-1.2,17.55-1.2,4.25,0,8.56.92,12.1,2.04,3.55,1.13,7.32,2.9,8.98,7.16.83,2.13.54,7.78,1.14,7.78s.89-1.48.89-4.43c0-3.66-1.33-6.56-3.99-8.69-2.66-2.13-5.82-3.7-9.49-4.7-3.67-1-6.92-1.51-9.75-1.51-10.64,0-21.28,1.24-31.93,3.73-10.64,2.48-20.52,6.5-29.62,12.06,1.18-6.03,2.78-11.82,4.79-17.38,2.01-5.56,4.2-11.11,6.56-16.67,1.18.47,2.42.8,3.72.98,1.3.18,2.6.27,3.9.27,6.5,0,13.01-1.36,19.51-4.08,6.5-2.72,12.77-6.41,18.8-11.09,6.03-4.67,11.59-9.87,16.68-15.61,5.08-5.73,9.54-11.65,13.39-17.74,3.84-6.09,6.83-11.97,8.96-17.65,2.13-5.68,3.19-10.7,3.19-15.08,0-4.14-1.06-7.42-3.19-9.84ZM120.96,213.28c-.93.33-3.66.25-2.53-3.34,1.13-3.59,6.55-5.74,6.55-5.74-.04,6.21-1.7,8.24-4.03,9.08ZM223.35,94.83c-2.01,5.26-4.82,10.82-8.43,16.67-3.61,5.85-7.83,11.62-12.68,17.29-4.85,5.68-10.14,10.85-15.87,15.52-5.74,4.67-11.71,8.4-17.92,11.18-6.21,2.78-12.45,4.17-18.71,4.17-.6,0-1.48-.06-2.66-.18-1.18-.12-2.07-.35-2.66-.71.05-.12.11-.25.17-.37-1.02.57-1.92,1-2.69,1.25l2.91-5.48c.73-.36,1.59-.84,2.52-1.41,1.31-2.55,2.81-5.37,4.53-8.45,3.19-5.73,6.83-11.82,10.91-18.27,4.08-6.44,8.46-12.8,13.13-19.07,4.67-6.27,9.49-12,14.46-17.2,4.97-5.2,9.84-9.34,14.63-12.42,4.79-3.07,9.37-4.61,13.75-4.61,2.6,0,4.52.77,5.76,2.31,1.24,1.54,1.86,3.67,1.86,6.39,0,3.67-1,8.13-3.01,13.39Z"/>
    <path class="cls-2" d="M174.48,130.72c1.53-1.89,4-5.16,7.38-9.8,3.39-4.64,4.72-8.13,4.3-7.6-.6.76-1.45,2.67-4.46,6.93-3,4.26-6.38,7.58-7.61,9.06-5.28,6.37-10.24,10.21-15.74,15.15-3.86,3.47-7.92,6.41-11.02,8.3-1.05,2.05-1.97,3.93-2.75,5.64,2.46-1.39,5.68-3.71,9.74-7.09,7.08-5.9,13.8-12.76,20.16-20.6Z"/>
    <path class="cls-2" d="M144.82,154.18l-2.91,5.48c.76-.25,1.67-.68,2.69-1.25.78-1.71,1.7-3.59,2.75-5.64-.94.57-1.79,1.05-2.52,1.41Z"/>
  </g>
</svg>